<svg xmlns="http://www.w3.org/2000/svg" viewBox="0 0 815.64 479.57"><defs><style>.cls-1{fill:#1f2244;}.cls-2{fill:#8f2214;}</style></defs><g id="Layer_2" data-name="Layer 2"><g id="Layer_1-2" data-name="Layer 1"><path class="cls-1" d="M9.16,418.05V328.81L7.41,314.58H85.23q11.24,0,17.65,3a21.78,21.78,0,0,1,9.49,7.81,27.28,27.28,0,0,1,3.95,10.28A65.89,65.89,0,0,1,117.2,346v10.36a38.28,38.28,0,0,1-1.23,9.05,28.15,28.15,0,0,1-4.57,9.66,25.12,25.12,0,0,1-9.66,7.73q-6.33,3.07-16.51,3.07H67.31q-11.07,0-20.64-.52t-14.32-.88v33.55Zm23.19-49H80.13Q88,369,91,365.17a14.77,14.77,0,0,0,3-9.31V344.8a15.07,15.07,0,0,0-3-9.49q-3-3.85-10.71-3.86h-48Z"/><path class="cls-1" d="M138.28,418.05v-78.7h14.4l6.68,3.51a45.3,45.3,0,0,1,9.83-3.86,52.89,52.89,0,0,1,13.36-1.41q12.81,0,20.81,2.81A92.71,92.71,0,0,1,214,344.62l-6.15,15.28a65.53,65.53,0,0,0-6.94-2.72,100.74,100.74,0,0,0-11.33-3.07,67.1,67.1,0,0,0-14.23-1.41h-1.93q-8.43,0-11,3.34t-2.72,11.07v50.94Z"/><path class="cls-1" d="M247.72,418.05q-11.78,0-17.48-4.74t-5.71-15.46v-36a55.4,55.4,0,0,1,.44-6.42,20.3,20.3,0,0,1,2.46-7.46,15.42,15.42,0,0,1,6.85-6.15q4.83-2.46,13.44-2.46H296.2c5.86,0,10.36.82,13.53,2.46a15.54,15.54,0,0,1,6.76,6.15,20.48,20.48,0,0,1,2.46,7.46,57.72,57.72,0,0,1,.44,6.42v33.72a63.32,63.32,0,0,1-.44,7A18.08,18.08,0,0,1,316.4,410a15.56,15.56,0,0,1-6.85,5.8q-4.74,2.28-13.35,2.28Zm6.67-15.11h35.14q8.6,0,8.6-7V361.48q0-7-8.6-7H254.39q-8.43,0-8.43,7v34.44Q246,402.94,254.39,402.94Z"/><path class="cls-1" d="M380.87,418.05V314.58h76.42q16.5,0,24.06,6.59t7.55,15.9v5.27q0,7.2-3.07,11.85a19.54,19.54,0,0,1-6.59,6.59,24.14,24.14,0,0,1,12.3,8.52q4.56,6.06,4.57,15.9v3.16a46.24,46.24,0,0,1-1.23,10.54,23,23,0,0,1-14.32,16.51q-6.24,2.64-16.25,2.64Zm23.19-62H453.6q6.13.18,9.13-3.08a11.58,11.58,0,0,0,3-8.16V343a13,13,0,0,0-2.81-7.82q-2.82-3.77-10.54-3.77H404.06Zm0,45.14h55.33q6.67,0,10.1-3.33t3.43-9.14v-3.16a11.09,11.09,0,0,0-4-8.87q-4-3.42-13.35-3.43H404.06Z"/><path class="cls-1" d="M517.18,418.05v-78.7h14.41l6.67,3.51A45.58,45.58,0,0,1,548.1,339a52.8,52.8,0,0,1,13.35-1.41q12.82,0,20.82,2.81a92.71,92.71,0,0,1,10.63,4.22l-6.15,15.28a66.44,66.44,0,0,0-6.94-2.72,100.74,100.74,0,0,0-11.33-3.07,67.16,67.16,0,0,0-14.23-1.41h-1.93q-8.43,0-11,3.34t-2.72,11.07v50.94Z"/><path class="cls-1" d="M626.62,418.05q-11.76,0-17.48-4.74t-5.7-15.46v-36a55.4,55.4,0,0,1,.44-6.42,20.46,20.46,0,0,1,2.45-7.46,15.45,15.45,0,0,1,6.86-6.15q4.83-2.46,13.43-2.46h48.49q8.77,0,13.52,2.46A15.51,15.51,0,0,1,695.4,348a20.67,20.67,0,0,1,2.46,7.46,57.72,57.72,0,0,1,.44,6.42v33.72a63.32,63.32,0,0,1-.44,7,18.38,18.38,0,0,1-2.55,7.38,15.61,15.61,0,0,1-6.85,5.8c-3.16,1.52-7.62,2.28-13.35,2.28Zm6.68-15.11h35.13q8.61,0,8.61-7V361.48q0-7-8.61-7H633.3q-8.43,0-8.43,7v34.44Q624.87,402.94,633.3,402.94Z"/><path class="cls-1" d="M801.76,419.81a39.42,39.42,0,0,1-12.56-1.76q-5.18-1.76-11-7.55l-2.81-2.82c-1.52-1.52-3.19-3.21-5-5.09s-3.49-3.57-5-5.09l-3-3a47.31,47.31,0,0,0-8.34-6.85,18.12,18.12,0,0,0-9.75-2.46c-2.58,0-4.1.24-4.57.7s-.7,2.05-.7,4.74v27.41H717.62V306.85h21.43v63.24h5.62a7.73,7.73,0,0,0,5.62-2.46q1.59-1.58,6-6.32l9.92-10.72q5.53-6,10.1-11.06h25.83L799.3,345q-4,4.21-8.78,8.87t-9.22,9q-4.49,4.31-8.17,7.56a35.92,35.92,0,0,1-5.62,4.3,52.66,52.66,0,0,1,9.48,6.41q4.23,3.6,9.14,8.08t11.77,10.1q6.15,4.92,11.42,5.71t6.32.79l-3.16,12.3q-1.76.52-4.74,1.14A29.69,29.69,0,0,1,801.76,419.81Z"/><rect class="cls-1" y="472.36" width="808.99" height="7.21"/><path class="cls-1" d="M420,258.91c-.65-.05-1.31-.11-2-.18V218.92c40.9,9.4,74.27-29.52,70.71-68.1.58-.61,19-14.37,26.66-30.52C552.62,186.57,489.64,266.8,420,258.91Z"/><path class="cls-2" d="M500.49,34.83l-.09-.11.39.54Z"/><path class="cls-2" d="M511.84,58.79l-.08-.3C511.78,58.59,511.81,58.69,511.84,58.79Z"/><path class="cls-2" d="M485.18,154.12a.36.36,0,0,0,0-.1A.36.36,0,0,1,485.18,154.12Z"/><path class="cls-2" d="M501.77,138.46l0,0Z"/><path class="cls-2" d="M504.07,136.06v0Z"/><path class="cls-2" d="M492.51,146.61q-1.5,1.14-3,2.22Q491,147.75,492.51,146.61Z"/><path class="cls-2" d="M506.3,133.53Z"/><path class="cls-2" d="M485.51,156.27c-.1-.72-.2-1.44-.33-2.15C485.3,154.83,485.41,155.55,485.51,156.27Z"/><path class="cls-2" d="M504.07,136.06c-.75.81-1.52,1.61-2.3,2.4C502.55,137.67,503.32,136.87,504.07,136.06Z"/><path class="cls-2" d="M514.22,122.67a90,90,0,0,1-7.92,10.86,90,90,0,0,0,7.92-10.86Z"/><path class="cls-2" d="M504.08,136c.76-.82,1.5-1.66,2.22-2.51C505.58,134.38,504.84,135.22,504.08,136Z"/><path class="cls-2" d="M471,143.41c28.22-12.06,49.62-39.87,47.62-71.37,0,0,0,0,0,0-.07-1.2-.17-2.4-.3-3.59a68.64,68.64,0,0,0-6.11-21.7A73.65,73.65,0,0,0,504.58,34c-13.32-17.88-34.15-29.39-56-33C443.41-.36,428.27.08,422.8,0V37.84h34.35C494.06,51,496.85,96,460.79,112.31H352.48v35.43C361.66,146.77,465,150.94,471,143.41Z"/><path class="cls-2" d="M516.56,58.79c0-.1,0-.2-.08-.3Z"/><polygon class="cls-2" points="399.92 0.03 399.92 37.84 326.11 37.84 292.64 0.03 399.92 0.03"/><polygon class="cls-2" points="392.71 221.09 392.71 258.9 297.48 258.9 292.64 258.9 326.11 221.09 392.71 221.09"/><path class="cls-2" d="M339.42,48.84V210.09c-4.85,5.49-31.62,35.72-37.06,41.87V7Z"/><polygon class="cls-2" points="485.51 156.26 485.51 156.26 485.51 156.26 485.51 156.26"/><path class="cls-2" d="M420,256.55c-.63-.05-1.26-.1-1.89-.17V218.46c37.95,8.7,75.3-27.91,66.69-66.54a90,90,0,0,0,29.59-29.45C546.14,185.57,488.1,263.28,420,256.55Z"/><polygon class="cls-2" points="487.4 159.1 487.4 159.1 487.4 159.1 487.4 159.1"/><rect class="cls-1" x="370.6" y="161.96" width="33.53" height="96.94"/><rect class="cls-1" x="370.6" y="0.03" width="33.53" height="98.05"/><path class="cls-1" d="M467.61,143.41A72.86,72.86,0,0,0,511.71,72s0,0,0,0c-.06-1.2-.16-2.4-.29-3.59a69.44,69.44,0,0,0-6-21.7A73.68,73.68,0,0,0,497.86,34c-13-17.78-33.52-29.38-55.13-33-5.1-1.34-20-.9-25.4-.95V37.84h33.83C487.5,51,490.25,96,454.74,112.31H352.2v35.43C359.31,146.72,464.3,151,467.61,143.41Z"/><path class="cls-1" d="M509.66,58.79c0-.1-.06-.2-.08-.3Z"/></g></g></svg>