<svg xmlns="http://www.w3.org/2000/svg" viewBox="0 0 922.97 179.23"><defs><style>.cls-1{fill:#1f2244;}.cls-2{fill:#8f2214;}</style></defs><g id="Layer_2" data-name="Layer 2"><g id="Layer_1-2" data-name="Layer 1"><path class="cls-1" d="M172.82,146.31V63.8L171.2,50.64h72q10.4,0,16.32,2.77a20.06,20.06,0,0,1,8.77,7.22,25.23,25.23,0,0,1,3.66,9.5,60.55,60.55,0,0,1,.81,9.59V89.3a35.24,35.24,0,0,1-1.14,8.36,26.06,26.06,0,0,1-4.22,8.94,23.13,23.13,0,0,1-8.93,7.14q-5.85,2.85-15.27,2.85H226.58q-10.23,0-19.08-.49t-13.24-.81v31ZM194.26,101h44.18q7.31,0,10.07-3.57a13.66,13.66,0,0,0,2.76-8.61V78.58a13.92,13.92,0,0,0-2.76-8.77q-2.76-3.57-9.91-3.57H194.26Z"/><path class="cls-1" d="M292.2,146.31V73.55h13.32l6.17,3.24a42.16,42.16,0,0,1,9.09-3.57,49.26,49.26,0,0,1,12.35-1.3q11.85,0,19.24,2.6a83.45,83.45,0,0,1,9.83,3.9l-5.69,14.13A58.55,58.55,0,0,0,350.1,90a92.4,92.4,0,0,0-10.48-2.84,62,62,0,0,0-13.15-1.3h-1.79q-7.8,0-10.15,3.09T312,99.21v47.1Z"/><path class="cls-1" d="M393.38,146.31q-10.87,0-16.16-4.39t-5.28-14.29V94.33a52.87,52.87,0,0,1,.41-5.92,19,19,0,0,1,2.27-6.91A14.36,14.36,0,0,1,381,75.82c3-1.52,7.12-2.27,12.42-2.27h44.83q8.12,0,12.51,2.27A14.42,14.42,0,0,1,457,81.5a19,19,0,0,1,2.27,6.91,52.87,52.87,0,0,1,.41,5.92v31.19a58.22,58.22,0,0,1-.41,6.5,16.83,16.83,0,0,1-2.35,6.82,14.38,14.38,0,0,1-6.34,5.36q-4.38,2.12-12.34,2.11Zm6.17-14H432q7.95,0,8-6.5V94q0-6.49-8-6.5H399.55q-7.79,0-7.79,6.5v31.83Q391.76,132.35,399.55,132.34Z"/><path class="cls-1" d="M516.49,146.31V50.64h70.65q15.27,0,22.26,6.1t7,14.69v4.88a19.55,19.55,0,0,1-2.84,11,18.15,18.15,0,0,1-6.09,6.09,22.32,22.32,0,0,1,11.37,7.88q4.21,5.6,4.22,14.7v2.92a42.69,42.69,0,0,1-1.14,9.75,21.21,21.21,0,0,1-13.24,15.26q-5.76,2.44-15,2.44ZM537.93,89h45.8c3.79.1,6.61-.84,8.45-2.85a10.73,10.73,0,0,0,2.76-7.55V77a12,12,0,0,0-2.6-7.23q-2.6-3.49-9.74-3.49H537.93Zm0,41.74h51.16q6.18,0,9.34-3.09a11.26,11.26,0,0,0,3.17-8.45v-2.92a10.26,10.26,0,0,0-3.74-8.2q-3.74-3.16-12.34-3.17H537.93Z"/><path class="cls-1" d="M642.53,146.31V73.55h13.32L662,76.79a42.16,42.16,0,0,1,9.09-3.57,49.26,49.26,0,0,1,12.35-1.3q11.85,0,19.24,2.6a83.45,83.45,0,0,1,9.83,3.9l-5.69,14.13A58.55,58.55,0,0,0,700.43,90,92.4,92.4,0,0,0,690,87.19a62,62,0,0,0-13.15-1.3H675q-7.8,0-10.15,3.09t-2.52,10.23v47.1Z"/><path class="cls-1" d="M743.71,146.31q-10.87,0-16.16-4.39t-5.28-14.29V94.33a52.87,52.87,0,0,1,.41-5.92A19,19,0,0,1,725,81.5a14.36,14.36,0,0,1,6.34-5.68c3-1.52,7.12-2.27,12.42-2.27h44.83q8.12,0,12.51,2.27a14.42,14.42,0,0,1,6.25,5.68,19,19,0,0,1,2.27,6.91,52.87,52.87,0,0,1,.41,5.92v31.19a58.22,58.22,0,0,1-.41,6.5,16.83,16.83,0,0,1-2.35,6.82,14.38,14.38,0,0,1-6.34,5.36q-4.38,2.12-12.34,2.11Zm6.17-14h32.49q7.95,0,8-6.5V94q0-6.49-8-6.5H749.88q-7.78,0-7.79,6.5v31.83Q742.09,132.35,749.88,132.34Z"/><path class="cls-1" d="M905.64,147.93A36.45,36.45,0,0,1,894,146.31q-4.8-1.62-10.15-7l-2.6-2.59q-2.12-2.11-4.63-4.71T872,127.31l-2.76-2.77a45.07,45.07,0,0,0-7.71-6.33,16.82,16.82,0,0,0-9-2.27c-2.38,0-3.79.21-4.22.65s-.65,1.89-.65,4.38v25.34H827.84V43.5h19.82V102h5.2a7.12,7.12,0,0,0,5.19-2.28q1.47-1.45,5.53-5.84t9.17-9.91q5.12-5.52,9.34-10.23H906l-2.6,5q-3.74,3.9-8.12,8.2t-8.53,8.29q-4.14,4-7.55,7a33,33,0,0,1-5.2,4,48.65,48.65,0,0,1,8.77,5.93q3.9,3.33,8.45,7.47t10.88,9.34q5.68,4.55,10.56,5.28c3.25.49,5.19.73,5.84.73l-2.92,11.37c-1.08.32-2.55.67-4.38,1.05A27.4,27.4,0,0,1,905.64,147.93Z"/><rect class="cls-1" y="172.56" width="922.97" height="6.67"/><path class="cls-1" d="M74.57,150.64l-1.14-.11V127.37c23.79,5.47,43.21-17.18,41.14-39.62.33-.36,11-8.36,15.51-17.76C151.71,108.55,115.07,155.23,74.57,150.64Z"/><path class="cls-2" d="M121.38,20.26l0-.06.23.31Z"/><path class="cls-2" d="M128,34.2l0-.17C128,34.09,128,34.15,128,34.2Z"/><path class="cls-2" d="M112.47,89.67v0Z"/><path class="cls-2" d="M122.12,80.56h0Z"/><path class="cls-2" d="M123.46,79.16h0Z"/><path class="cls-2" d="M116.74,85.3q-.87.66-1.77,1.29Q115.87,86,116.74,85.3Z"/><path class="cls-2" d="M124.76,77.69Z"/><path class="cls-2" d="M112.66,90.92c0-.42-.12-.84-.19-1.25C112.54,90.08,112.61,90.5,112.66,90.92Z"/><path class="cls-2" d="M123.46,79.16c-.44.47-.88.94-1.34,1.4C122.58,80.1,123,79.63,123.46,79.16Z"/><path class="cls-2" d="M129.37,71.37a52.92,52.92,0,0,1-4.61,6.32,52.92,52.92,0,0,0,4.61-6.32Z"/><path class="cls-2" d="M123.47,79.15c.44-.48.87-1,1.29-1.46C124.34,78.18,123.91,78.67,123.47,79.15Z"/><path class="cls-2" d="M104.24,83.44c16.42-7,28.87-23.2,27.7-41.53,0,0,0,0,0,0,0-.7-.09-1.4-.17-2.09a39.71,39.71,0,0,0-3.56-12.62,43,43,0,0,0-4.45-7.43C116,9.36,103.89,2.66,91.18.57c-3-.78-11.82-.52-15-.55V22h20c21.48,7.68,23.1,33.84,2.12,43.33h-63V86C40.61,85.39,100.76,87.82,104.24,83.44Z"/><path class="cls-2" d="M130.73,34.2c0-.05,0-.11,0-.17Z"/><polygon class="cls-2" points="62.87 0.02 62.87 22.01 19.92 22.01 0.45 0.02 62.87 0.02"/><polygon class="cls-2" points="58.67 128.63 58.67 150.63 3.27 150.63 0.45 150.63 19.92 128.63 58.67 128.63"/><path class="cls-2" d="M27.67,28.41v93.82L6.11,146.59V4.06C9.4,7.78,24.71,25.08,27.67,28.41Z"/><polygon class="cls-2" points="112.66 90.92 112.66 90.92 112.66 90.92 112.66 90.92"/><path class="cls-2" d="M74.53,149.26l-1.1-.1V127.1c22.08,5.07,43.81-16.24,38.8-38.71a52.41,52.41,0,0,0,17.21-17.14C147.94,108,114.17,153.18,74.53,149.26Z"/><polygon class="cls-2" points="113.76 92.56 113.76 92.56 113.76 92.56 113.76 92.56"/><rect class="cls-1" x="45.81" y="94.23" width="19.51" height="56.4"/><rect class="cls-1" x="45.81" y="0.02" width="19.51" height="57.04"/><path class="cls-1" d="M102.25,83.44a42.41,42.41,0,0,0,25.66-41.53h0c0-.7-.1-1.39-.17-2.09a40.48,40.48,0,0,0-3.5-12.62,43.32,43.32,0,0,0-4.39-7.43C112.26,9.42,100.34,2.67,87.77.57,84.81-.21,76.14.05,73,0V22H92.68c21.14,7.68,22.74,33.84,2.08,43.33H35.1V86C39.24,85.36,100.33,87.87,102.25,83.44Z"/><path class="cls-1" d="M126.71,34.2a.85.85,0,0,1,0-.17Z"/></g></g></svg>