<svg xmlns="http://www.w3.org/2000/svg" viewBox="0 0 805.51 512.86"><defs><style>.cls-1{fill:#2d8faa;}.cls-2{fill:#0f4a6b;}.cls-3{fill:#8bb4c6;}.cls-4{fill:#1f2244;}</style></defs><g id="Layer_2" data-name="Layer 2"><g id="Layer_1-2" data-name="Layer 1"><polygon class="cls-1" points="451.27 251.32 469.64 251.32 398.16 179.83 326.67 251.32 345.04 251.32 398.16 198.2 451.27 251.32"/><polygon class="cls-2" points="398.16 218.51 430.97 251.32 451.27 251.32 398.16 198.2 345.04 251.32 365.34 251.32 398.16 218.51"/><polygon class="cls-1" points="287.03 232.95 398.16 121.82 509.29 232.95 578.96 232.95 597.33 251.32 626.33 251.32 578.96 203.95 509.29 203.95 398.16 92.82 287.03 203.95 216.45 203.95 169.07 251.32 198.08 251.32 216.45 232.95 287.03 232.95"/><polygon class="cls-2" points="398.16 150.83 498.65 251.32 597.33 251.32 578.96 232.95 509.29 232.95 398.16 121.82 287.03 232.95 216.45 232.95 198.08 251.32 297.66 251.32 398.16 150.83"/><polygon class="cls-1" points="576 177.84 575.27 177.84 523.85 154.69 398.16 29 272.44 154.72 272.44 154.69 221.01 177.84 220.31 177.84 398.16 0 576 177.84"/><polygon class="cls-2" points="398.16 29 272.44 154.72 278.23 177.84 278.33 177.84 398.16 58.01 517.99 177.84 518.05 177.84 523.85 154.7 398.16 29"/><polygon class="cls-3" points="575.27 177.84 518.04 177.84 523.85 154.69 575.27 177.84"/><polygon class="cls-3" points="278.23 177.84 221.01 177.84 272.44 154.69 272.44 154.72 278.23 177.84"/><path class="cls-2" d="M31.59,403.24q-12.16,0-19-3.43A19.18,19.18,0,0,1,3,389.52q-2.74-6.86-2.75-17V334.3q0-16.46,7.38-24.26t24-7.8H83.21q11.83,0,18.09,1.28t6.26,2.66l-3.43,14.23q-2.91-.51-17.23-1.11t-41.59-.6H36.57q-13.72,0-13.72,12.17V374.6q0,5.83,3,9t10.72,3.18h7q28.46,0,44.15-.6t19.47-1.29l7,11.32c0,.57-.94,1.43-2.83,2.57S106.07,401,101,401.87s-12.29,1.37-21.77,1.37Z"/><path class="cls-2" d="M150.6,403.24q-8.4,0-13.12-2.23a14.59,14.59,0,0,1-6.69-5.66,18.65,18.65,0,0,1-2.4-7.2,62.37,62.37,0,0,1-.42-6.86V326.42h20.92v55.21q-.18,3.78,2.48,5.32a11.24,11.24,0,0,0,5.75,1.54h33.95c2.51,0,4-.23,4.46-.68s.68-1.95.68-4.46V326.42h20.93v76.82H203.07l-6.51-3.43q-6.87,1.38-16.21,2.4a192.31,192.31,0,0,1-21,1Z"/><path class="cls-2" d="M257.09,403.24q-11.49,0-16.29-1.2t-4.8-2.4l5.14-12.86q5,.51,18.27,1.11t32.83.6h8.58q4.28,0,5.4-2.31a14.69,14.69,0,0,0,1.11-6.26,13.47,13.47,0,0,0-1.28-6.35q-1.29-2.4-5.23-2.4H258.63q-12,0-17.32-4.54T236,353v-6.85a37.27,37.27,0,0,1,.51-5.66,17.4,17.4,0,0,1,2.57-6.52,15.22,15.22,0,0,1,6.69-5.4q4.64-2.15,12.86-2.14H306q10.29,0,14.58,1.2c2.85.8,4.29,1.6,4.29,2.4l-1.72,12.86q-5-.53-18.35-1.12t-32.75-.6h-8.57q-4.29,0-5.41,2.32a12.34,12.34,0,0,0-1.11,5.4,11.69,11.69,0,0,0,1.11,5.4q1.13,2.14,5.41,2.14h42.18q11.65,0,17.15,4.81a15.49,15.49,0,0,1,5.48,12.17v10.12a53.49,53.49,0,0,1-.42,6.51,14.5,14.5,0,0,1-2.49,6.44,14.32,14.32,0,0,1-6.69,4.88q-4.63,1.89-13,1.89Z"/><path class="cls-2" d="M377,403.24q-13,0-17.83-5.49t-4.8-16.46V341.16H340.26V326.42h7.2a8.38,8.38,0,0,0,4.71-1q1.45-1,2.15-4.12l3.43-18.35h17.49v23.5h35.67v14.74H375.24v40.3c0,2.86.68,4.75,2.06,5.66s3.43,1.37,6.17,1.37h24.18l1.71,13q-3.6.53-11,1.12t-16.12.6Z"/><path class="cls-2" d="M445.54,403.24q-11.49,0-17.06-4.63t-5.57-15.09V348.36a54.59,54.59,0,0,1,.43-6.25,19.68,19.68,0,0,1,2.4-7.29,15,15,0,0,1,6.69-6q4.71-2.4,13.11-2.4h47.33q8.58,0,13.21,2.4a15.21,15.21,0,0,1,6.6,6,20.05,20.05,0,0,1,2.4,7.29,57,57,0,0,1,.43,6.25v32.93a62.55,62.55,0,0,1-.43,6.86,17.71,17.71,0,0,1-2.49,7.2,15.15,15.15,0,0,1-6.68,5.66q-4.64,2.24-13,2.23Zm6.52-14.75h34.3q8.4,0,8.4-6.86V348q0-6.86-8.4-6.86h-34.3q-8.24,0-8.23,6.86v33.61Q443.83,388.5,452.06,388.49Z"/><path class="cls-2" d="M534.37,403.24V326.42h14.06l4.29,2.05c3.32-.57,7.37-1.05,12.18-1.45s10.51-.6,17.14-.6h8.58a35.63,35.63,0,0,1,9.6,1.28,14.47,14.47,0,0,1,6.86,3.69,45.64,45.64,0,0,1,12.35-3.6A123.81,123.81,0,0,1,640,326.42h8.58c5.71,0,10.12.8,13.2,2.4a15.1,15.1,0,0,1,6.6,6,19.89,19.89,0,0,1,2.41,7.29,56.66,56.66,0,0,1,.42,6.25v54.88H650.29V348q0-6.86-8.23-6.86h-24a7.27,7.27,0,0,0-3.77.69c-.68.46-1,1.49-1,3.09v58.3H592.33V348q0-6.86-8.23-6.86H560.44q-3.27,0-4.2.6c-.63.4-1,1.46-1,3.18v58.3Z"/><path class="cls-2" d="M682.36,403.24,688.88,393l38.06-40.13-44.58-50.41H709.8l33.09,37.9h1.89l33.27-37.9h27.43l-6.69,10.11-37.89,40.3,44.58,50.42H778.05L744.78,365h-1.89L709.8,403.24Z"/><path class="cls-1" d="M237,485.21c0,11.06,7,18.94,17,18.94,7.27,0,11.89-3.79,14.77-7l6.06,6.29a26.89,26.89,0,0,1-20.3,9.09c-15.91,0-26.37-12-26.37-27.2s10.38-27.34,26.07-27.34A26.31,26.31,0,0,1,274,466.57l-6.06,6.29a17.28,17.28,0,0,0-14.31-6.59C243.93,466.27,237,474.22,237,485.21Z"/><path class="cls-1" d="M283.09,485.21c0-15.23,9.93-27.27,25.61-27.27s25.6,12,25.6,27.27-9.92,27.27-25.6,27.27S283.09,500.44,283.09,485.21Zm42.35,0c0-11.06-7.05-18.94-16.74-18.94S292,474.15,292,485.21s7.05,18.94,16.75,18.94S325.44,496.27,325.44,485.21Z"/><path class="cls-1" d="M344.53,511.73V457.56L378,491.35V458.69h8.71v54.17l-33.48-33.79v32.66Z"/><path class="cls-1" d="M423.46,470.82a10.21,10.21,0,0,0-8.86-4.55c-3.79,0-6.82,2.27-6.82,5.68,0,4.77,4.62,6,10.76,8.71C426,484,432,488.09,432,496.5c0,9.85-7,16-17.12,16-11,0-16.74-7.19-18.33-12.57l7.35-4.25c1.36,4.47,5.07,8.49,11,8.49,4.39,0,8.18-2.42,8.18-7.42,0-4.48-4.47-6.67-10.07-9-8.41-3.49-14.4-7.43-14.4-15.3,0-8.87,6.9-14.47,16-14.47,7.12,0,12.27,3.33,15,7.34Z"/><path class="cls-1" d="M474.82,458.69h8.71v29.09c0,15.31-5.68,24.7-20.83,24.7s-20.83-9.32-20.83-24.62V458.69h8.71v32.73c0,8.11,4.54,12.73,12.12,12.73s12.12-4.7,12.12-12.65Z"/><path class="cls-1" d="M526.41,503.39v8.34H495.65v-53h8.71v44.7Z"/><path class="cls-1" d="M543.83,511.73V467H529.44v-8.34h37.5V467h-14.4v44.7Z"/><line class="cls-4" y1="491.47" x2="189.38" y2="491.6"/><rect class="cls-1" y="489.01" width="189.38" height="5.05"/><line class="cls-4" x1="616.12" y1="487.81" x2="805.5" y2="488.05"/><rect class="cls-1" x="708.29" y="393.24" width="5.05" height="189.38" transform="translate(222 1198.13) rotate(-89.93)"/></g></g></svg>